HIERARCHY
ROOT Hips
{
	OFFSET 0.00000 0.00000 0.00000
	CHANNELS 6 Xposition Yposition Zposition Zrotation Yrotation Xrotation 
	JOINT LHipJoint
	{
		OFFSET 0 0 0
		CHANNELS 3 Zrotation Yrotation Xrotation
		JOINT LeftUpLeg
		{
			OFFSET 1.62964 -1.40469 0.78906
			CHANNELS 3 Zrotation Yrotation Xrotation
			JOINT LeftLeg
			{
				OFFSET 2.29640 -6.30932 0.00000
				CHANNELS 3 Zrotation Yrotation Xrotation
				JOINT LeftFoot
				{
					OFFSET 2.29451 -6.30412 0.00000
					CHANNELS 3 Zrotation Yrotation Xrotation
					JOINT LeftToeBase
					{
						OFFSET 0.03611 -0.09921 1.56387
						CHANNELS 3 Zrotation Yrotation Xrotation
						End Site
						{
							OFFSET 0.00000 -0.00000 0.80291
						}
					}
				}
			}
		}
	}
	JOINT RHipJoint
	{
		OFFSET 0 0 0
		CHANNELS 3 Zrotation Yrotation Xrotation
		JOINT RightUpLeg
		{
			OFFSET -1.73712 -1.40469 0.78906
			CHANNELS 3 Zrotation Yrotation Xrotation
			JOINT RightLeg
			{
				OFFSET -2.28137 -6.26801 0.00000
				CHANNELS 3 Zrotation Yrotation Xrotation
				JOINT RightFoot
				{
					OFFSET -2.28681 -6.28298 0.00000
					CHANNELS 3 Zrotation Yrotation Xrotation
					JOINT RightToeBase
					{
						OFFSET -0.15927 -0.43759 1.61103
						CHANNELS 3 Zrotation Yrotation Xrotation
						End Site
						{
							OFFSET -0.00000 -0.00000 0.84630
						}
					}
				}
			}
		}
	}
	JOINT LowerBack
	{
		OFFSET 0 0 0
		CHANNELS 3 Zrotation Yrotation Xrotation
		JOINT Spine
		{
			OFFSET -0.04227 2.04338 -0.00225
			CHANNELS 3 Zrotation Yrotation Xrotation
			JOINT Spine1
			{
				OFFSET -0.02148 2.04482 -0.04273
				CHANNELS 3 Zrotation Yrotation Xrotation
				JOINT Neck
				{
					OFFSET 0 0 0
					CHANNELS 3 Zrotation Yrotation Xrotation
					JOINT Neck1
					{
						OFFSET 0.09180 1.44629 0.19359
						CHANNELS 3 Zrotation Yrotation Xrotation
						JOINT Head
						{
							OFFSET 0.00887 1.40645 0.14750
							CHANNELS 3 Zrotation Yrotation Xrotation
							End Site
							{
								OFFSET -0.00669 1.50671 0.03707
							}
						}
					}
				}
				JOINT LeftShoulder
				{
					OFFSET 0 0 0
					CHANNELS 3 Zrotation Yrotation Xrotation
					JOINT LeftArm
					{
						OFFSET 2.17674 1.86763 -0.06520
						CHANNELS 3 Zrotation Yrotation Xrotation
						JOINT LeftForeArm
						{
							OFFSET 4.65776 -0.00000 0.00000
							CHANNELS 3 Zrotation Yrotation Xrotation
							JOINT LeftHand
							{
								OFFSET 3.55539 -0.00000 0.00000
								CHANNELS 3 Zrotation Yrotation Xrotation
								JOINT LeftFingerBase
								{
									OFFSET 0 0 0
									CHANNELS 3 Zrotation Yrotation Xrotation
									JOINT LeftHandIndex1
									{
										OFFSET 0.70726 -0.00000 0.00000
										CHANNELS 3 Zrotation Yrotation Xrotation
										End Site
										{
											OFFSET 0.57022 -0.00000 0.00000
										}
									}
								}
								JOINT LThumb
								{
									OFFSET 0 0 0
									CHANNELS 3 Zrotation Yrotation Xrotation
									End Site
									{
										OFFSET 0.57892 -0.00000 0.57892
									}
								}
							}
						}
					}
				}
				JOINT RightShoulder
				{
					OFFSET 0 0 0
					CHANNELS 3 Zrotation Yrotation Xrotation
					JOINT RightArm
					{
						OFFSET -2.80694 1.55459 -0.32496
						CHANNELS 3 Zrotation Yrotation Xrotation
						JOINT RightForeArm
						{
							OFFSET -4.71925 -0.00000 -0.00000
							CHANNELS 3 Zrotation Yrotation Xrotation
							JOINT RightHand
							{
								OFFSET -3.56990 -0.00000 0.00000
								CHANNELS 3 Zrotation Yrotation Xrotation
								JOINT RightFingerBase
								{
									OFFSET 0 0 0
									CHANNELS 3 Zrotation Yrotation Xrotation
									JOINT RightHandIndex1
									{
										OFFSET -0.50776 -0.00000 0.00000
										CHANNELS 3 Zrotation Yrotation Xrotation
										End Site
										{
											OFFSET -0.40937 -0.00000 0.00000
										}
									}
								}
								JOINT RThumb
								{
									OFFSET 0 0 0
									CHANNELS 3 Zrotation Yrotation Xrotation
									End Site
									{
										OFFSET -0.41562 -0.00000 0.41562
									}
								}
							}
						}
					}
				}
			}
		}
	}
}
MOTION
Frames: 13
Frame Time: .0083333
-0.8398 18.014 20.8942 0 0 0 0 0 0 -21 0 0 0 0 0 0 0 0 0 0 0 0 0 0 21 0 0 0 0 0 0 0 0 0 0 0 0 0 0 0 0 0 0 0 0 0 0 -16 0 0 21 0 0 11 0 0 0 -8 0 0 0 0 0 0 0 0 0 0 0 0 0 0 0 0 0 0 0 0 8 0 0 0 0 0 0 0 0 0 0 0 0 0 0 0 0 0
-0.8398 18.0140 20.8942 172.1690 1.5241 -157.6980 0.0000 0.0000 0.0000 -17.1173 -15.2820 -28.9655 1.4988 7.7331 21.9062 0.1524 -1.1123 -7.0652 0.8613 -5.9181 -16.5471 0.0000 0.0000 0.0000 12.2030 10.5909 -16.7499 -0.0684 -1.6868 4.6409 -0.9246 4.6450 -17.2069 -0.7843 5.6537 -15.7829 -13.3038 -3.2347 -25.6764 -1.5791 -0.2414 1.8696 5.3687 -1.2949 15.9277 -9.3373 0.4042 0.1066 11.6914 0.3548 10.6769 5.1525 0.5005 3.0708 -0.0000 0.0000 0.0000 -64.6823 -4.9040 22.8763 27.5308 -38.6807 -9.8291 -0.0000 0.0000 -2.5625 23.3666 -11.7644 -5.0341 -7.1250 0.0000 -0.0000 -2.6568 17.2061 1.7539 -0.0000 0.0000 0.0000 88.3808 -4.8266 13.3593 -14.1502 22.9491 -2.8864 0.0000 -0.0000 -6.7974 -20.4442 -55.2728 17.0337 7.1250 -0.0000 -0.0000 75.9100 -79.4390 -65.2697
-0.8231 18.0250 20.9226 172.5350 0.5883 -157.1080 0.0000 0.0000 0.0000 -17.0758 -15.4209 -28.5188 1.4056 7.4992 21.2029 0.1500 -1.2374 -6.9843 0.8559 -5.8999 -16.4941 0.0000 0.0000 0.0000 12.6984 10.7086 -17.3237 -0.0690 -1.6952 4.6640 -0.9268 3.9923 -17.2908 -0.6593 5.1933 -14.4608 -13.1518 -3.5132 -25.5904 -1.3056 -0.7495 1.5218 5.4013 -1.4840 15.5712 -8.9863 0.3834 0.6065 11.4578 0.3297 10.8018 5.0182 0.4947 3.0304 0.0000 0.0000 0.0000 -65.5730 -4.6800 21.4479 26.9252 -38.1078 -9.4529 -0.0000 0.0000 -0.1747 23.3213 -11.8937 -5.0774 -7.1250 0.0000 -0.0000 -2.6945 17.0710 1.7868 0.0000 0.0000 0.0000 88.7963 -5.1704 11.7986 -14.4237 23.3372 -2.9939 0.0000 -0.0000 -5.2762 -20.0820 -54.9918 16.6701 7.1250 -0.0000 -0.0000 74.3273 -79.2790 -63.5734
-0.8056 18.0344 20.9523 172.9520 -0.2381 -156.4570 0.0000 0.0000 0.0000 -16.9590 -15.4390 -28.1806 1.3154 7.2645 20.5014 0.1479 -1.3663 -6.9128 0.8452 -5.8638 -16.3898 0.0000 0.0000 0.0000 13.2104 11.0790 -17.9260 -0.0698 -1.7049 4.6909 -0.9413 3.2153 -17.5367 -0.6897 5.3093 -14.7928 -12.9109 -3.7246 -25.6408 -1.0487 -1.1664 1.2133 5.3999 -1.6348 15.3156 -8.6636 0.3369 1.0094 11.2579 0.2738 10.8987 4.8992 0.4744 3.0007 -0.0000 0.0000 0.0000 -66.4163 -4.5999 19.9724 26.3356 -37.5382 -9.0914 -0.0000 -0.0000 2.2355 23.2843 -12.0387 -5.1290 -7.1250 0.0000 -0.0000 -2.7273 16.9182 1.8177 -0.0000 0.0000 0.0000 89.2106 -5.4218 10.3317 -14.7467 23.7921 -3.1230 0.0000 -0.0000 -3.9620 -19.8401 -55.1284 16.4900 7.1250 -0.0000 -0.0000 75.0148 -79.1954 -64.1465
-0.7989 18.0396 20.9658 173.4380 -0.7080 -155.8860 0.0000 0.0000 0.0000 -16.8428 -15.4566 -27.8436 1.2288 7.0303 19.8050 0.1455 -1.5003 -6.8353 0.8337 -5.8249 -16.2772 0.0000 0.0000 0.0000 13.7303 11.5087 -18.4281 -0.0695 -1.7009 4.6798 -0.9488 2.7019 -17.6974 -0.7371 5.4847 -15.2964 -12.4405 -3.7824 -25.9881 -0.8623 -1.3868 0.9935 5.2635 -1.6948 15.2718 -8.3299 0.2878 1.3989 11.0556 0.2181 10.9866 4.7779 0.4550 2.9704 0.0000 0.0000 0.0000 -67.2812 -4.5081 18.3427 25.7858 -36.9964 -8.7584 -0.0000 -0.0000 4.7025 23.2696 -12.1729 -5.1813 -7.1250 0.0000 -0.0000 -2.7440 16.7750 1.8374 0.0000 0.0000 0.0000 89.6420 -5.6110 8.8936 -15.0539 24.2211 -3.2480 0.0000 -0.0000 -2.6067 -19.3373 -55.5346 16.1366 7.1250 -0.0000 -0.0000 77.0554 -79.0247 -65.9382
-0.8065 18.0445 20.9553 173.8710 -0.4314 -155.3810 0.0000 0.0000 0.0000 -16.7015 -15.5389 -27.5537 1.1464 6.7989 19.1210 0.1436 -1.5837 -6.7796 0.8150 -5.7609 -16.0922 0.0000 0.0000 0.0000 14.0559 11.7817 -19.0987 -0.0748 -1.7641 4.8541 -0.9402 3.0439 -17.5541 -0.7044 5.3644 -14.9510 -11.9095 -3.6339 -26.7907 -0.8109 -1.2748 0.8654 5.0570 -1.6192 15.4901 -7.9511 0.2527 1.8388 10.8148 0.1870 11.0810 4.6376 0.4488 2.9316 -0.0000 -0.0000 0.0000 -68.1562 -4.2827 16.4767 25.2960 -36.5050 -8.4654 -0.0000 -0.0000 7.2295 23.2760 -12.2963 -5.2344 -7.1250 0.0000 -0.0000 -2.7456 16.6413 1.8465 -0.0000 -0.0000 0.0000 90.1931 -6.0066 7.3869 -15.6299 25.0162 -3.4880 0.0000 -0.0000 -1.0523 -18.5509 -55.9679 15.5416 7.1250 -0.0000 -0.0000 79.1102 -78.7380 -67.6331
-0.8128 18.0519 20.9524 174.8010 -0.6528 -155.0420 0.0000 0.0000 0.0000 -16.1336 -15.6344 -27.2315 1.0662 6.5645 18.4314 0.1416 -1.6515 -6.7229 0.8042 -5.7234 -15.9839 0.0000 0.0000 0.0000 15.0811 12.3149 -19.1397 -0.0656 -1.6520 4.5449 -0.9212 2.7742 -17.4154 -0.6476 5.1477 -14.3303 -10.8845 -3.4652 -27.2305 -0.5676 -1.3744 0.6542 4.7313 -1.5865 15.4734 -7.5623 0.2358 2.5686 10.5412 0.1868 11.1161 4.4842 0.4545 2.8250 0.0000 0.0000 0.0000 -69.0043 -3.8894 14.6770 24.8606 -36.0612 -8.2077 -0.0000 -0.0000 9.7262 23.3489 -12.1183 -5.1782 -7.1250 0.0000 -0.0000 -2.6862 16.8260 1.7956 0.0000 0.0000 0.0000 91.1133 -6.7558 4.8623 -16.5751 26.2942 -3.8972 0.0000 0.0000 1.4023 -17.4942 -56.0264 14.6484 7.1250 -0.0000 -0.0000 79.1813 -78.3424 -67.2759
-0.8149 18.0403 20.9585 175.3130 -1.0117 -154.8850 0.0000 0.0000 0.0000 -16.3851 -15.7176 -26.8029 0.9863 6.3211 17.7191 0.1361 -1.8774 -6.5686 0.7977 -5.7006 -15.9181 0.0000 0.0000 0.0000 15.7506 12.1976 -19.5749 -0.0781 -1.8023 4.9596 -0.9387 3.0035 -17.5464 -0.6457 5.1404 -14.3096 -10.2838 -3.4164 -27.2536 -0.4029 -1.5163 0.6114 4.5380 -1.6029 15.4595 -7.2689 0.1752 2.6272 10.3165 0.1284 11.2968 4.3667 0.4379 2.8771 -0.0000 0.0000 0.0000 -69.8162 -3.8918 12.7526 24.4275 -35.6131 -7.9542 -0.0000 -0.0000 12.2446 23.3724 -12.1692 -5.2053 -7.1250 0.0000 -0.0000 -2.6724 16.7687 1.7897 -0.0000 0.0000 0.0000 91.1788 -6.6904 4.6062 -16.6989 26.4591 -3.9522 0.0000 0.0000 1.5984 -16.9226 -55.7170 14.1115 7.1250 -0.0000 -0.0000 77.5981 -78.1154 -65.4862
-0.8172 18.0306 20.9618 175.6290 -1.2989 -154.7670 0.0000 0.0000 0.0000 -16.6051 -15.7815 -26.3888 0.9089 6.0751 17.0026 0.1304 -2.1035 -6.4160 0.7870 -5.6634 -15.8107 0.0000 0.0000 0.0000 16.1585 12.2061 -19.7157 -0.0796 -1.8195 5.0070 -0.9430 2.9346 -17.5992 -0.6277 5.0696 -14.1072 -9.8578 -3.3563 -27.2998 -0.3492 -1.5754 0.5772 4.3452 -1.5956 15.4484 -6.9286 0.0930 2.7299 10.0884 0.0438 11.4624 4.2397 0.4104 2.9196 -0.0000 -0.0000 0.0000 -70.5457 -3.9651 11.0318 24.0062 -35.1708 -7.7101 -0.0000 -0.0000 14.7700 23.3984 -12.2059 -5.2271 -7.1250 0.0000 -0.0000 -2.6561 16.7265 1.7812 -0.0000 -0.0000 0.0000 91.2320 -6.5196 4.4581 -16.6350 26.3741 -3.9238 0.0000 0.0000 1.6700 -16.7216 -55.5008 13.9062 7.1250 -0.0000 -0.0000 76.5477 -78.0249 -64.3697
-0.8188 18.0226 20.9638 175.8870 -1.5419 -154.7330 0.0000 0.0000 0.0000 -16.8132 -15.8334 -25.9360 0.8331 5.8230 16.2716 0.1243 -2.3325 -6.2608 0.7748 -5.6202 -15.6862 0.0000 0.0000 0.0000 16.5163 12.1608 -19.7129 -0.0769 -1.7884 4.9211 -0.9408 2.8839 -17.5876 -0.5851 4.8977 -13.6171 -9.5162 -3.3129 -27.2639 -0.2892 -1.6368 0.5563 4.2060 -1.5948 15.4143 -6.6447 0.0260 2.8237 9.8607 -0.0206 11.6272 4.1226 0.3903 2.9611 -0.0000 -0.0000 0.0000 -71.3833 -4.0213 9.1559 23.6293 -34.7698 -7.4941 -0.0000 -0.0000 17.3787 23.4376 -12.2408 -5.2516 -7.1250 0.0000 -0.0000 -2.6306 16.6850 1.7665 -0.0000 -0.0000 0.0000 91.1945 -6.3387 4.4571 -16.5561 26.2688 -3.8888 0.0000 0.0000 1.7163 -16.9157 -55.5069 14.0716 7.1250 -0.0000 -0.0000 76.5887 -78.0991 -64.4897
-0.8202 18.0164 20.9655 176.1340 -1.7477 -154.7510 0.0000 0.0000 0.0000 -17.0020 -15.8840 -25.4763 0.7606 5.5698 15.5411 0.1178 -2.5622 -6.1021 0.7618 -5.5741 -15.5535 0.0000 0.0000 0.0000 16.8762 12.0907 -19.6644 -0.0757 -1.7748 4.8838 -0.9421 2.8769 -17.6008 -0.5715 4.8413 -13.4563 -9.2023 -3.2812 -27.1783 -0.2070 -1.7077 0.5586 4.1038 -1.6009 15.3861 -6.4073 -0.0197 2.8991 9.6341 -0.0567 11.7918 4.0143 0.3819 3.0029 -0.0000 0.0000 0.0000 -72.2414 -4.0313 7.0650 23.3120 -34.4283 -7.3140 -0.0000 -0.0000 20.0519 23.4925 -12.2705 -5.2778 -7.1250 0.0000 -0.0000 -2.5940 16.6471 1.7440 -0.0000 0.0000 0.0000 91.1158 -6.2527 4.6157 -16.6582 26.4050 -3.9341 0.0000 0.0000 1.8379 -16.4391 -56.3364 13.7976 7.1250 -0.0000 -0.0000 80.4909 -77.9546 -68.1397
-0.8215 18.0109 20.9682 176.3910 -1.9059 -154.6710 0.0000 0.0000 0.0000 -17.1582 -15.9603 -25.0398 0.6923 5.3189 14.8205 0.1111 -2.7799 -5.9468 0.7470 -5.5208 -15.4001 0.0000 0.0000 0.0000 17.2287 11.9968 -19.7841 -0.0767 -1.7861 4.9148 -0.9428 2.9789 -17.5897 -0.5513 4.7566 -13.2155 -8.8829 -3.2370 -27.1928 -0.1320 -1.7595 0.5332 3.9944 -1.5998 15.3692 -6.1008 -0.0763 3.0010 9.3856 -0.1031 11.9530 3.8874 0.3712 3.0402 0.0000 -0.0000 0.0000 -73.0607 -4.0153 4.9520 23.0419 -34.1346 -7.1618 -0.0000 -0.0000 22.7323 23.5530 -12.2878 -5.3003 -7.1250 0.0000 -0.0000 -2.5529 16.6224 1.7176 0.0000 -0.0000 0.0000 91.0824 -6.2188 4.7765 -16.7439 26.5189 -3.9723 0.0000 0.0000 1.6928 -17.0657 -56.6101 14.3763 7.1250 -0.0000 -0.0000 81.9326 -78.1831 -69.8103
-0.8232 18.0053 20.9721 176.6260 -2.0700 -154.5860 0.0000 0.0000 0.0000 -17.3336 -16.0243 -24.5975 0.6265 5.0650 14.0941 0.1038 -3.0065 -5.7841 0.7311 -5.4629 -15.2338 0.0000 0.0000 0.0000 17.5422 11.9504 -19.8947 -0.0768 -1.7879 4.9197 -0.9450 3.0367 -17.6017 -0.5381 4.7003 -13.0556 -8.5789 -3.1895 -27.1860 -0.0715 -1.8055 0.4884 3.8798 -1.5962 15.3172 -5.7037 -0.1586 3.1115 9.1115 -0.1792 12.1026 3.7368 0.3491 3.0749 0.0000 0.0000 0.0000 -73.9231 -4.0032 2.8304 22.8242 -33.8960 -7.0400 -0.0000 -0.0000 25.4031 23.6128 -12.2916 -5.3169 -7.1250 0.0000 -0.0000 -2.5116 16.6120 1.6904 0.0000 0.0000 0.0000 91.0398 -6.1790 4.9102 -16.7816 26.5689 -3.9891 0.0000 0.0000 1.5328 -17.9363 -56.5193 15.1086 7.1250 -0.0000 -0.0000 81.7209 -78.5048 -69.9491
